<svg height="512" viewBox="0 0 512 512" width="512" xmlns="http://www.w3.org/2000/svg"><g id="Flat"><g><path d="m312 488h-268a20 20 0 0 1 -20-20v-12l32-344h224l24.213 109.787 7.787 234.213z" fill="#fac850"/><g><path d="m200 266v44a26.038 26.038 0 0 0 16 24v144a25.859 25.859 0 0 0 2 10h94v-32l-7.182-216h-78.818a26.03 26.03 0 0 0 -26 26z" fill="#f29a49"/><path d="m216 266v44a10 10 0 0 0 10 10h6v158a10 10 0 0 0 10 10h220a10 10 0 0 0 10-10v-158h6a10 10 0 0 0 10-10v-44a10 10 0 0 0 -10-10h-252a10 10 0 0 0 -10 10z" fill="#9fdc6e"/></g><path d="m296 256v64h24v168h64v-168h24v-64z" fill="#fac850"/><path d="m232 160h-16v-88a32.036 32.036 0 0 0 -32-32h-32a32.036 32.036 0 0 0 -32 32v88h-16v-88a48.055 48.055 0 0 1 48-48h32a48.055 48.055 0 0 1 48 48z" fill="#fa7d29"/><circle cx="112" cy="168" fill="#fffffe" r="24"/><circle cx="224" cy="168" fill="#fffffe" r="24"/><g><g><path d="m483.083 166.962-12.34 19.884a10 10 0 0 0 -1.034 8.3l7.009 22.063a10 10 0 0 1 -5.694 12.262l-22.3 9.266a10 10 0 0 0 -5.614 5.965l-7.756 22.422a10 10 0 0 1 -11.643 6.487l-23.752-5.338a10 10 0 0 0 -7.93 1.566l-19.939 13.967a10 10 0 0 1 -13.235-1.574l-15.7-17.791a10 10 0 0 0 -7.46-3.383l-24.146-.094a10 10 0 0 1 -9.928-9.177l-1.9-23.07a10 10 0 0 0 -4.112-7.285l-18.972-13.7a10 10 0 0 1 -2.642-13.381l12.34-19.884a10 10 0 0 0 1.034-8.3l-7.011-22.067a10 10 0 0 1 5.694-12.262l22.3-9.266a10 10 0 0 0 5.613-5.965l7.755-22.417a10 10 0 0 1 11.643-6.49l23.752 5.338a10 10 0 0 0 7.93-1.566l19.941-13.967a10 10 0 0 1 13.235 1.574l15.7 17.79a10 10 0 0 0 7.459 3.384l24.147.093a10 10 0 0 1 9.927 9.178l1.9 23.07a10 10 0 0 0 4.112 7.285l18.973 13.7a10 10 0 0 1 2.644 13.383z" fill="#fa5d3f"/><path d="m483.083 166.962-14.768 23.8 8.4 26.451a10 10 0 0 1 -5.694 12.262l-26.441 10.984-9.224 26.665a10 10 0 0 1 -11.643 6.487l-28.063-6.311-23.56 16.5a10 10 0 0 1 -13.235-1.574l-18.668-21.157-28.636-.111a10 10 0 0 1 -9.928-9.177l-2.282-27.659-22.706-16.395a10 10 0 0 1 -2.642-13.381l14.768-23.8-8.4-26.451a10 10 0 0 1 5.694-12.262l26.445-10.978 9.22-26.665a10 10 0 0 1 11.643-6.49l28.063 6.307 23.56-16.5a10 10 0 0 1 13.235 1.574l18.668 21.157 28.636.11a10 10 0 0 1 9.927 9.178l2.283 27.659 22.706 16.395a10 10 0 0 1 2.642 13.382z" fill="none"/></g><g fill="#fffefd"><path d="m320.1 176.425h124.451v16h-124.451z" transform="matrix(.707 -.707 .707 .707 -18.428 324.362)"/><path d="m346.325 172.425a24 24 0 1 1 24-24 24.027 24.027 0 0 1 -24 24zm0-32a8 8 0 1 0 8 8 8.009 8.009 0 0 0 -8-8z"/><path d="m418.325 236.425a24 24 0 1 1 24-24 24.027 24.027 0 0 1 -24 24zm0-32a8 8 0 1 0 8 8 8.009 8.009 0 0 0 -8-8z"/></g></g><path d="m232 320h240v16h-240z" fill="#63c521"/><path d="m320 320h64v16h-64z" fill="#cca341"/></g></g></svg>