<svg xmlns="http://www.w3.org/2000/svg" width="512" height="455.136" viewBox="0 0 512 455.136">
  <g id="promotion" transform="translate(0 -28.432)">
    <g id="Group_13" data-name="Group 13">
      <g id="Group_12" data-name="Group 12">
        <path id="Path_11" data-name="Path 11" d="M301.676,195.469a9.939,9.939,0,0,0-9.938,9.937v.142a9.938,9.938,0,0,0,19.875,0v-.142A9.937,9.937,0,0,0,301.676,195.469Z" fill="#248ad6"/>
      </g>
    </g>
    <g id="Group_15" data-name="Group 15">
      <g id="Group_14" data-name="Group 14">
        <path id="Path_12" data-name="Path 12" d="M358.981,239.257V157.691a9.937,9.937,0,0,0-12.848-9.5L123.268,216.441H66.392a66.383,66.383,0,0,0-5.844,132.51L82.421,453.818a37.382,37.382,0,1,0,73.189-15.267l-4.793-22.976a60.927,60.927,0,0,0,41.464-45.217l153.85,47.115a9.939,9.939,0,0,0,12.848-9.5V326.4a44.689,44.689,0,0,0,0-87.147ZM66.392,329.346a46.516,46.516,0,1,1,0-93.031h48.425v93.032H66.392ZM132.6,457.229a17.508,17.508,0,0,1-30.725-7.469L80.907,349.221h35.77l12.7,60.873c0,.007,0,.015.005.022l6.777,32.493A17.441,17.441,0,0,1,132.6,457.229Zm14.132-61.237-8.82-42.285,35.27,10.8A41.007,41.007,0,0,1,146.735,395.992Zm192.371-1.458h0l-27.492-8.419V245.255a9.937,9.937,0,1,0-19.874,0V380.029L188.166,348.31a9.854,9.854,0,0,0-3.127-.958l-50.345-15.418V233.728l204.413-62.6V394.534Zm19.874-88.959V260.087a24.816,24.816,0,0,1,0,45.488Z" fill="#248ad6"/>
      </g>
    </g>
    <g id="Group_17" data-name="Group 17">
      <g id="Group_16" data-name="Group 16">
        <path id="Path_13" data-name="Path 13" d="M466.785,272.894H422.463a9.938,9.938,0,1,0,0,19.875h44.322a9.938,9.938,0,0,0,0-19.875Z" fill="#248ad6"/>
      </g>
    </g>
    <g id="Group_19" data-name="Group 19">
      <g id="Group_18" data-name="Group 18">
        <path id="Path_14" data-name="Path 14" d="M438.442,196.233a9.937,9.937,0,0,0-13.885-2.172l-22.3,16.267a9.937,9.937,0,1,0,11.711,16.057l22.3-16.267A9.937,9.937,0,0,0,438.442,196.233Z" fill="#248ad6"/>
      </g>
    </g>
    <g id="Group_21" data-name="Group 21">
      <g id="Group_20" data-name="Group 20">
        <path id="Path_15" data-name="Path 15" d="M436.27,355.546,414.1,339.378a9.938,9.938,0,0,0-11.712,16.058L424.558,371.6a9.937,9.937,0,0,0,11.712-16.057Z" fill="#248ad6"/>
      </g>
    </g>
    <g id="Group_23" data-name="Group 23">
      <g id="Group_22" data-name="Group 22">
        <path id="Path_16" data-name="Path 16" d="M452.763,64.207H246.495a9.937,9.937,0,1,0,0,19.874H452.763a9.937,9.937,0,1,0,0-19.874Z" fill="#248ad6"/>
      </g>
    </g>
    <g id="Group_25" data-name="Group 25">
      <g id="Group_24" data-name="Group 24">
        <path id="Path_17" data-name="Path 17" d="M145.734,67.119a9.931,9.931,0,1,0,2.912,7.026A10.014,10.014,0,0,0,145.734,67.119Z" fill="#248ad6"/>
      </g>
    </g>
    <g id="Group_27" data-name="Group 27">
      <g id="Group_26" data-name="Group 26">
        <path id="Path_18" data-name="Path 18" d="M109.214,67.119a9.931,9.931,0,1,0,2.912,7.026A10.014,10.014,0,0,0,109.214,67.119Z" fill="#248ad6"/>
      </g>
    </g>
    <g id="Group_29" data-name="Group 29">
      <g id="Group_28" data-name="Group 28">
        <path id="Path_19" data-name="Path 19" d="M182.254,67.119a9.931,9.931,0,1,0,2.912,7.026A10.025,10.025,0,0,0,182.254,67.119Z" fill="#248ad6"/>
      </g>
    </g>
    <g id="Group_31" data-name="Group 31">
      <g id="Group_30" data-name="Group 30">
        <path id="Path_20" data-name="Path 20" d="M470.263,28.432H84.689A41.784,41.784,0,0,0,42.952,70.169V206.312a9.937,9.937,0,0,0,19.874,0V167.628h61.928a9.938,9.938,0,1,0,0-19.875H62.827v-27.9c.037,0,.073.006.108.006h429.19V378.23a21.886,21.886,0,0,1-21.862,21.862H391.094a9.938,9.938,0,1,0,0,19.875h79.169A41.784,41.784,0,0,0,512,378.23V70.169A41.784,41.784,0,0,0,470.263,28.432Zm21.862,71.55H62.935c-.037,0-.073,0-.108.006V70.169A21.886,21.886,0,0,1,84.689,48.307H470.263a21.886,21.886,0,0,1,21.862,21.862Z" fill="#248ad6"/>
      </g>
    </g>
    <g id="Group_33" data-name="Group 33">
      <g id="Group_32" data-name="Group 32">
        <path id="Path_21" data-name="Path 21" d="M164.009,150.663a9.928,9.928,0,1,0,2.913,7.025A10.01,10.01,0,0,0,164.009,150.663Z" fill="#248ad6"/>
      </g>
    </g>
  </g>
</svg>
