<svg height="512" viewBox="0 0 512 512" width="512" xmlns="http://www.w3.org/2000/svg"><g id="Flat"><g><g><g><path d="m447.213 340.62-138.593 138.593a30 30 0 0 1 -42.426 0l-200.621-200.621a30 30 0 0 1 -8.628-24.3l12.993-125.6a30 30 0 0 1 26.754-26.754l125.6-12.993a30 30 0 0 1 24.3 8.628l200.621 200.621a30 30 0 0 1 0 42.426z" fill="#fac850"/><path d="m287.407 459.028a17.887 17.887 0 0 1 -12.728-5.271l-8.336-8.336 11.314-11.315 8.336 8.336a2 2 0 0 0 2.828 0l8.1-8.1 11.314 11.314-8.1 8.1a17.889 17.889 0 0 1 -12.728 5.272z" fill="#fffffe"/><path d="m413.657 340.235-11.314-11.314 8.1-8.1a2 2 0 0 0 0-2.828l-8.336-8.336 11.315-11.314 8.336 8.336a18 18 0 0 1 0 25.457z" fill="#fffffe"/><path d="m98.343 277.421-11.762-11.762a17.924 17.924 0 0 1 -5.175-14.582l1.23-11.9 15.916 1.644-1.231 11.9a1.99 1.99 0 0 0 .575 1.62l11.761 11.761z" fill="#fffffe"/><path d="m471.138 248h-278.838l14.6-166.872a10 10 0 0 1 9.962-9.128h267.924a10 10 0 0 1 9.962 10.872l-13.648 156a10 10 0 0 1 -9.962 9.128z" fill="#fa5d3f"/><g fill="#fffbfa"><path d="m258 136h30v-16h-30a18.021 18.021 0 0 0 -18 18v12a18.021 18.021 0 0 0 18 18h12a2 2 0 0 1 2 2v12a2 2 0 0 1 -2 2h-30v16h30a18.021 18.021 0 0 0 18-18v-12a18.021 18.021 0 0 0 -18-18h-12a2 2 0 0 1 -2-2v-12a2 2 0 0 1 2-2z"/><path d="m352 200v-56a24 24 0 0 0 -48 0v56h16v-24h16v24zm-32-40v-16a8 8 0 0 1 16 0v16z"/><path d="m368 120v72a8 8 0 0 0 8 8h32v-16h-24v-64z"/><path d="m464 136v-16h-32a8 8 0 0 0 -8 8v64a8 8 0 0 0 8 8h32v-16h-24v-16h16v-16h-16v-16z"/></g></g><path d="m143.98 97.05c.02-.35.02-.7.02-1.05a55.908 55.908 0 1 0 -41.99 54.24l3.98 15.49a72.009 72.009 0 1 1 54-70.34z" fill="#fa7d29"/><path d="m129.015 145.015a16 16 0 1 0 11.314 4.687 15.9 15.9 0 0 0 -11.314-4.687zm0 48a32 32 0 1 1 22.627-54.627 32 32 0 0 1 -22.628 54.626z" fill="#fffffe"/></g><path d="m192 248h112v104h-16z" fill="#fa7d29"/></g></g></svg>