<svg xmlns="http://www.w3.org/2000/svg" width="450.59" height="512" viewBox="0 0 450.59 512">
  <g id="video" transform="translate(0)">
    <path id="Path_22" data-name="Path 22" d="M440.59,206.676H99.418l327.7-94.93a10,10,0,0,0,6.824-12.387l-17.148-59.2A55.98,55.98,0,0,0,363.254,0a55.4,55.4,0,0,0-15.4,2.191L40.176,91.32A55.783,55.783,0,0,0,2.207,160.258l16.754,57.836V456.348A55.714,55.714,0,0,0,74.609,512H194.773a10,10,0,0,0,0-20H74.613a35.691,35.691,0,0,1-35.652-35.652V320.262H430.59V456.348A35.691,35.691,0,0,1,394.938,492H274.773a10,10,0,0,0,0,20H394.938a55.714,55.714,0,0,0,55.652-55.652V216.676A10,10,0,0,0,440.59,206.676ZM264.258,300.262l42.488-73.586h55.262l-42.484,73.586Zm-78.359,0,42.488-73.586h55.262l-42.484,73.586Zm-78.355,0,42.484-73.586h55.266L162.8,300.262ZM144.723,170.8,73.574,102.469l53.309-15.441A9.919,9.919,0,0,0,128.2,88.57l71.148,68.336-53.309,15.441A9.951,9.951,0,0,0,144.723,170.8Zm134-125.84L349.871,113.3l-53.309,15.441a9.742,9.742,0,0,0-1.312-1.543L224.1,58.863,277.41,43.422A9.919,9.919,0,0,0,278.723,44.965Zm-75.266,21.8L274.605,135.1,221.3,150.547A9.742,9.742,0,0,0,219.984,149L148.836,80.668l53.309-15.441A10.564,10.564,0,0,0,203.457,66.77ZM353.418,21.4a35.357,35.357,0,0,1,9.836-1.4,35.88,35.88,0,0,1,34.328,25.727l14.367,49.59-40.121,11.621a10.165,10.165,0,0,0-1.316-1.543L299.367,37.063ZM24.48,127.6a35.388,35.388,0,0,1,21.262-17.07l5.875-1.7a10.17,10.17,0,0,0,1.313,1.543l71.148,68.336L35.785,204.285,21.418,154.7A35.4,35.4,0,0,1,24.48,127.6Zm14.48,99.074h87.973L84.449,300.262H38.961Zm303.656,73.586L385.1,226.676H430.59v73.586Zm0,0" fill="#50b83c" fill-rule="evenodd"/>
    <path id="Path_23" data-name="Path 23" d="M303.922,405.113a10,10,0,0,0-5-8.66L211.066,345.73a10,10,0,0,0-15,8.66V455.836a9.995,9.995,0,0,0,15,8.656l87.855-50.719A10,10,0,0,0,303.922,405.113Zm-87.855,33.4v-66.8l57.855,33.4Zm0,0" fill="#50b83c" fill-rule="evenodd"/>
    <path id="Path_24" data-name="Path 24" d="M234.773,492a10,10,0,1,0,10,10A10.019,10.019,0,0,0,234.773,492Zm0,0" fill="#50b83c" fill-rule="evenodd"/>
  </g>
</svg>
