<svg xmlns="http://www.w3.org/2000/svg" width="21.317" height="19.846" viewBox="0 0 21.317 19.846"><path d="M128.2,134.274c-.434,1.226-2.158,2.243-3.533,2.54-.941.2-2.169.36-6.3-1.355-5.29-2.191-8.7-7.567-8.962-7.915s-2.138-2.846-2.138-5.429a5.746,5.746,0,0,1,1.841-4.381,2.615,2.615,0,0,1,1.84-.646c.223,0,.423.011.6.02.529.022.794.054,1.143.889.434,1.046,1.492,3.629,1.618,3.895a1.071,1.071,0,0,1,.076.974,3.11,3.11,0,0,1-.583.826c-.265.306-.518.54-.783.869-.243.286-.518.592-.212,1.12a15.977,15.977,0,0,0,2.921,3.629,13.234,13.234,0,0,0,4.221,2.6,1.138,1.138,0,0,0,1.269-.2,21.778,21.778,0,0,0,1.406-1.863,1,1,0,0,1,1.292-.391c.486.169,3.058,1.44,3.586,1.7s.878.391,1.006.614A4.484,4.484,0,0,1,128.2,134.274Z" transform="translate(-107.264 -117.088)" fill="#ff7500"/></svg>